<svg id="ab4b8d1e-4af3-4b2b-a3d3-49e50c54d647" data-name="图层 1" xmlns="http://www.w3.org/2000/svg" viewBox="0 0 100 100"><path d="M62.6,29.6,59,36.4c8.3,11.7,9.4,23.5,3.2,35.2-3.9,7.4-9.5,12.1-17,14.3A25,25,0,0,1,24,82.8,29.5,29.5,0,0,1,11,64.3a31.6,31.6,0,0,1,2.8-23.2c6-11.4,15.8-16.3,29.5-14.7l3.6-6.7a20.3,20.3,0,0,1,6.6,1.6l.6-1a12.8,12.8,0,0,1,7.6-6.7A10.6,10.6,0,0,1,71,14.8c11.9,6.8,1.7,20,10.8,26.7a11.1,11.1,0,0,0,5.5,1.3,2.7,2.7,0,0,1,1.3.5c1.4.9,1.7,1.9,1.1,3.1s-2.1,2-4.3,1.9a11.9,11.9,0,0,1-6.5-2.1c-10.7-6.8-2.3-20-10.7-26.4C64.5,17,60.9,18.6,58,24.2a33,33,0,0,1,4.6,5.4Z"/></svg>